<svg xmlns="http://www.w3.org/2000/svg" viewBox="0 0 550 850"><defs><style>.cls-1{isolation:isolate;}.cls-2{fill-rule:evenodd;}</style></defs><title>Asset 1</title><g id="Layer_2" data-name="Layer 2"><g id="Applility" class="cls-1"><g id="Applility-2" data-name="Applility"><path class="cls-2" d="M432.7,347.41a230,230,0,0,1-315.39,0A225,225,0,0,0,.06,540H0V750A100,100,0,0,0,100,850H550V545A224.94,224.94,0,0,0,432.7,347.41Zm-58,264.27-.05.06L275.5,725,176.39,611.73l-.05-.06a51.92,51.92,0,0,1,75.29-71.47l.16.15,15.16,14.41L275.5,563h0l8.55-8.23,15.16-14.42.16-.15A51.59,51.59,0,0,1,336.08,525h0a51.92,51.92,0,0,1,38.57,86.67ZM275,360A180,180,0,1,0,95,180,180,180,0,0,0,275,360Z"/></g></g></g></svg>