<svg xmlns="http://www.w3.org/2000/svg" viewBox="0 0 600 850"><defs><style>path {fill: #f16e00;}.cls-1{isolation:isolate;}.cls-2{fill-rule:evenodd;}</style></defs><title>Asset 1</title><g id="Layer_2" data-name="Layer 2"><g id="expert" class="cls-1"><g id="expert-2" data-name="expert"><path class="cls-2" d="M300,450A175,175,0,0,0,475,275V167.67L300,226,125,167.67V275A175,175,0,0,0,300,450ZM550,116.67,600,100,300,0,0,100,300,200l225-75V300l-10,50h45l-10-50ZM466.81,426a225,225,0,0,1-333.63,0A174.88,174.88,0,0,0,50,575V775a75,75,0,0,0,75,75c1.68,0,3.35-.08,5-.18V850H550V578h0c0-1,0-2,0-3A174.88,174.88,0,0,0,466.81,426ZM442.5,544c18,0,32.5,14.31,32.5,32s-14.55,32-32.5,32S410,593.61,410,576,424.55,544,442.5,544ZM502,807H398V795h3v0l1,0a23,23,0,0,0,23-23c0-.34,0-.67,0-1h0V660h-.06A22.82,22.82,0,0,0,403,639v0h-5V627h77V771h0c0,.33,0,.66,0,1a23,23,0,0,0,23,23l1,0v0h3Z"/></g></g></g></svg>