<svg xmlns="http://www.w3.org/2000/svg" viewBox="0 0 850 850"><defs><style>.cls-1{isolation:isolate;}.cls-2{fill-rule:evenodd;}</style></defs><title>Asset 1</title><g id="Layer_2" data-name="Layer 2"><g id="phone_fund" class="cls-1"><g id="phone_fund-2" data-name="phone_fund"><path class="cls-2" d="M464.67,85c-52.72,0-107.22,10.6-153,28.33C317.35,54.8,283.33,0,283.33,0c-79.79,68.09-84.17,129.89-85.74,158.2-.06,1-.08,1.93-.11,2.85l0-.07s-.27,13,.29,21.6C151.4,225,103.53,278.78,85,337.73l-38.34-.17C21,337.56,0,361.9,0,391.58V536.65c0,29.68,21,53.73,46.66,53.73l38.34.09c21.11,40.81,78.44,77.93,114,108.53-.06,1.16,1,1.83,1,3v93c0,29.68,19.29,55,45,55h49c25.71,0,45.9-27.25,45.9-56.93V771.49c39.66,12.58,80.73,21.85,124.76,21.85,50.66,0,118.84-11.47,163-27.91v27.65c0,29.68,21.11,56.93,46.81,56.93h43.82C744,850,765,822.68,765,793c0,0-.28-113.11,0-113,66.89-64.26,85-146.21,85-242.53C850,240.11,677.72,85,464.67,85Zm-96.44,48.49s88.37-43.93,226.6,0v36.29s-115.56-49.43-226.6,0Zm244,471.25a36.58,36.58,0,0,1-15.63,13.67A50.81,50.81,0,0,1,575,623.33H376.67c-31.49,0-46.8-14.33-46.8-42.5,0-10.46,4.2-20.73,12.61-30.48,9.93-12.43,16.82-23.56,20.67-33.57S370,492.88,372.27,477H338.72c-12.88,0-23.35-3.66-31.4-10.52s-12.08-16.66-12.08-29c0-12.46,3.94-22.26,11.81-29.25s18.43-10.63,31.67-10.63h16.51c-6.62-18.14-9.93-34.46-9.93-47.8,0-21.57,6.8-40,20.4-55.59s30.82-27.32,51.66-35.25a174.93,174.93,0,0,1,62.53-11.88q58,0,97.29,26.45,37.57,25.25,39,60.56a43.47,43.47,0,0,1-12.61,31.49,41.26,41.26,0,0,1-30.73,13q-12.48,0-21.07-7t-17.45-19.88Q524.31,336,512,329t-30.86-7.07A45.11,45.11,0,0,0,451,333.26c-8.9,7.61-13.35,16.94-13.35,28.13,0,8.86,4,21.51,12.08,36.25h39.59c12.7,0,23.22,3.69,31.54,10.68s12.48,16.91,12.48,29.37c0,11.75-4.34,21.29-13,28.42a47.45,47.45,0,0,1-31,10.89H459.63q0,27.21-21.47,68H575c12.08,0,22.25,3.5,30.53,10.3S618,571.68,618,583.76A38.29,38.29,0,0,1,612.27,604.74Z"/></g></g></g></svg>