<svg xmlns="http://www.w3.org/2000/svg" viewBox="0 0 825 850"><defs><style>.cls-1{isolation:isolate;}.cls-2{fill-rule:evenodd;}</style></defs><title>Asset 1</title><g id="Layer_2" data-name="Layer 2"><g id="Shape_1" data-name="Shape 1" class="cls-1"><g id="Shape_1-2" data-name="Shape 1"><path class="cls-2" d="M250,621.84A100.18,100.18,0,0,1,175,525V412.5a187.16,187.16,0,0,1,17.63-79.43,166.44,166.44,0,0,1-107.2-45.32A152.94,152.94,0,0,0,0,425V544.12C0,583.1,32,615,71,615V800a49.65,49.65,0,0,0,49.59,50H269.16A74.69,74.69,0,0,1,250,800ZM739.58,287.74a166.44,166.44,0,0,1-107.2,45.32A187.16,187.16,0,0,1,650,412.5V525a100.18,100.18,0,0,1-75,96.84V800a74.69,74.69,0,0,1-19.16,50H704.41A49.65,49.65,0,0,0,754,800V615c39,0,71-31.9,71-70.88V425A152.94,152.94,0,0,0,739.58,287.74ZM575,137.5a162,162,0,0,1-36.94,103.18l7.23,3.56A187.91,187.91,0,0,1,612,299.33a126.38,126.38,0,0,0,13,.67A125,125,0,1,0,559.62,68.45c.9,1.91,1.77,3.84,2.6,5.79A161.51,161.51,0,0,1,575,137.5ZM412.5,275A137.5,137.5,0,1,0,275,137.5,137.5,137.5,0,0,0,412.5,275ZM625,525V412.5a162.5,162.5,0,0,0-90.76-145.84,177.47,177.47,0,0,1-243.47,0A162.5,162.5,0,0,0,200,412.5V525a75,75,0,0,0,75,75V800a50,50,0,0,0,50,50H500a50,50,0,0,0,50-50V600A75,75,0,0,0,625,525ZM200,300a126.38,126.38,0,0,0,13-.67,187.9,187.9,0,0,1,66.68-55.09l7.23-3.56A162.69,162.69,0,0,1,262.78,74.24c.83-2,1.7-3.88,2.6-5.79A125,125,0,1,0,200,300Z"/></g></g></g></svg>