<svg xmlns="http://www.w3.org/2000/svg" viewBox="0 0 360.18 360.01"><title>Asset 1</title><g id="Layer_2" data-name="Layer 2"><g id="Layer_1-2" data-name="Layer 1"><path d="M226.1,158.17c6.24-.23,12.18-.63,18.11-.65,26.62-.07,53.25.05,79.87-.06,14.62-.06,25.76,5.91,32.3,19,6.41,12.84,4.54,25.18-4.2,36.51a5.5,5.5,0,0,0-.41.86c7.46,9.39,10.3,20,6.81,31.81s-11.47,19-23.21,23.1c3,9.19,3.11,18.33-1.28,27.16A33.65,33.65,0,0,1,314,313.3c.12,6.62,1.12,13,.18,19.09-2.47,16-16.7,27.55-33.06,27.58q-52.12.1-104.24,0h-141C14.37,360,0,345.59,0,324q0-54.37,0-108.74C0,194.69,14.63,180,35.13,180c21.5,0,43,0,64.5,0,11.78,0,20.55-4.93,26.6-15.07,10.43-17.48,21-34.86,31.52-52.3A152.35,152.35,0,0,0,180,34a33.74,33.74,0,1,1,67.48.06c.07,14.5.13,29,0,43.5a121.38,121.38,0,0,1-12.39,51.66A96.32,96.32,0,0,0,226.1,158.17ZM188.4,303.76a34.5,34.5,0,0,1-.06-45c-15.12-17.84-9.41-46.67,16.29-55.21-3.4-9.54-1.86-19.47-2.09-29.28-.46-19.34,3.93-37.61,12.32-55A100.09,100.09,0,0,0,225,74.32c-.11-13.12,0-26.25,0-39.37,0-7.44-4.42-12.36-11.08-12.45-6.82-.09-11.33,4.85-11.42,12.48a173.85,173.85,0,0,1-25.18,89q-15.91,26.49-31.93,52.92c-10.32,17-25.53,25.5-45.38,25.56-21.5.07-43,0-64.49,0-8.83,0-13,4.22-13,13.14q0,54.18,0,108.36c0,9.4,4.07,13.49,13.42,13.49H181.77C178.19,325,180.07,313.91,188.4,303.76ZM270.12,225q-27.75,0-55.49,0c-4.62,0-8.32,1.6-10.64,5.7-4.45,7.85,1.15,16.79,10.59,16.8q55.12.06,110.23,0c7.69,0,12.67-4.44,12.69-11.23s-5-11.26-12.64-11.26Q297.49,225,270.12,225Zm11.31-45q-21.75,0-43.49,0a19.86,19.86,0,0,0-4.1.26,11.16,11.16,0,0,0-8.78,12.2c.61,5.87,5.25,10,11.59,10q44.24.07,88.48,0c7.39,0,12.33-4.5,12.37-11.16S332.56,180,324.92,180Q303.17,180,281.43,180Zm-22.29,90q-21.93,0-43.87,0c-7.75,0-12.7,4.35-12.76,11.14s4.92,11.35,12.55,11.35q43.68,0,87.36,0c7.64,0,12.63-4.54,12.58-11.33S310,270,302.25,270Q280.69,270,259.13,270Zm-11.45,45q-16.31,0-32.62,0a17.28,17.28,0,0,0-4.08.35,11.11,11.11,0,0,0-8.43,12.1c.61,5.87,5.24,10,11.58,10q32.81.08,65.61,0c7.72,0,12.7-4.39,12.75-11.16.05-6.92-5-11.33-12.94-11.33Q263.62,315,247.68,315Z"/></g></g></svg>