<svg xmlns="http://www.w3.org/2000/svg" viewBox="0 0 800 750"><defs><style>.cls-1{isolation:isolate;}.cls-2{fill:#f16e00;fill-rule:evenodd;}</style></defs><title>Asset 1</title><g id="Layer_2" data-name="Layer 2"><g id="Shape_1" data-name="Shape 1" class="cls-1"><g id="Shape_1-2" data-name="Shape 1"><path class="cls-2" d="M750,150H636.6A100,100,0,0,0,500.35,13.22c-16.29,9.32-28.19,21.18-36.75,36.43L404.54,150h-9.07L336.39,49.65c-8.56-15.25-20.46-27.11-36.75-36.43A100,100,0,0,0,163.4,150H50A50,50,0,0,0,0,200V325H25V700a50,50,0,0,0,50,50H725a50,50,0,0,0,50-50V325h25V200A50,50,0,0,0,750,150ZM206.61,75.18A50.18,50.18,0,0,1,250.09,50h0a49.22,49.22,0,0,1,24.73,6.62c8.3,4.75,13.84,10.15,18,17.5l.25.45.26.44,44.14,75H248.74c-8.53-.69-17.54-3.16-23.54-6.59A50.06,50.06,0,0,1,206.61,75.18ZM546.79,473.74,400,635.59h0L253.21,473.74h0A102.94,102.94,0,0,1,400,329.43h0A102.94,102.94,0,0,1,546.78,473.74Zm28-330.33c-6,3.43-15,5.9-23.54,6.59H462.56L506.7,75l.26-.44.25-.45c4.13-7.36,9.67-12.75,18-17.5A49.23,49.23,0,0,1,549.91,50a50,50,0,0,1,24.89,93.41Z"/></g></g></g></svg>