<svg xmlns="http://www.w3.org/2000/svg" viewBox="0 0 749.7 687.94"><defs><style>.cls-1{isolation:isolate;}.cls-2{fill-rule:evenodd;}</style></defs><title>Asset 1</title><g id="Layer_2" data-name="Layer 2"><g id="Shape_6" data-name="Shape 6" class="cls-1"><g id="Shape_6-2" data-name="Shape 6"><path class="cls-2" d="M713.58,171.84,577.91,36.14a123.32,123.32,0,0,0-174.43,0l-9.69,9.69L374.4,65.22,219.35,220.31l19.38,19.39a54.81,54.81,0,0,0,77.53,0L432.54,123.38l9.69-9.69,9.69-9.69,252,252,9.69-9.69A123.4,123.4,0,0,0,713.58,171.84ZM190.27,346.32a41.11,41.11,0,0,0-58.14,0L93.37,385.1a41.12,41.12,0,0,0,58.14,58.16l38.76-38.77A41.13,41.13,0,0,0,190.27,346.32Zm77.53,77.55h0a41.11,41.11,0,0,0-58.14,0l-38.76,38.77a41.13,41.13,0,0,0,0,58.16h0a41.11,41.11,0,0,0,58.14,0L267.8,482A41.13,41.13,0,0,0,267.8,423.87Zm77.53,77.55h0a41.11,41.11,0,0,0-58.14,0l-38.76,38.77a41.13,41.13,0,0,0,0,58.16h0a41.11,41.11,0,0,0,58.14,0l38.76-38.77A41.13,41.13,0,0,0,345.33,501.41ZM422.85,579a41.11,41.11,0,0,0-58.14,0l-38.76,38.77a41.13,41.13,0,0,0,0,58.16h0a41.11,41.11,0,0,0,58.14,0l38.76-38.77a41.13,41.13,0,0,0,0-58.16Zm202-263.27L451.92,142.76l-58.14,58.16-58.14,58.16a82.21,82.21,0,0,1-116.29,0l-38.76-38.77L355,45.83l-8.14-8.15a125.51,125.51,0,0,0-177.53,0L36.77,170.3a125.59,125.59,0,0,0,0,177.57l28.5,28.51h0a68.23,68.23,0,0,1,4-5.5l.19-.22c.67-.81,1.35-1.62,2.07-2.41s1.58-1.71,2.41-2.54l38.76-38.77A68.5,68.5,0,0,1,229,385.13a68.46,68.46,0,0,1,77.53,77.55,68.46,68.46,0,0,1,77.53,77.55,69.1,69.1,0,0,1,21.38.3q1.93.33,3.84.77t3.8,1l1.88.58a68.09,68.09,0,0,1,27.29,16.72L461.62,579a41.12,41.12,0,1,0,58.14-58.16l-19.38-19.39L364.71,365.71a13.71,13.71,0,0,1,19.38-19.39L519.76,482l19.38,19.39h0a41.12,41.12,0,0,0,58.14-58.16l-19.38-19.39L442.23,288.16a13.71,13.71,0,0,1,19.38-19.39L597.29,404.48l19.38,19.39h0a41.12,41.12,0,1,0,58.14-58.16Z"/></g></g></g></svg>