<svg xmlns="http://www.w3.org/2000/svg" viewBox="0 0 825 775"><defs><style>.cls-1{isolation:isolate;}.cls-2{fill-rule:evenodd;}</style></defs><title>Asset 1</title><g id="Layer_2" data-name="Layer 2"><g id="Shape_2" data-name="Shape 2" class="cls-1"><g id="Shape_2-2" data-name="Shape 2"><path class="cls-2" d="M800,0H551.74L642.5,90.76,444.09,289.18,339,184.08,0,523.07V650a124.73,124.73,0,0,0,7.82,43.61L339,362.44l105.1,105.1,287.6-287.6L825,273.26V25A25,25,0,0,0,800,0ZM731.69,250.66,479.44,502.9l-35.36,35.36L408.73,502.9,339,433.15,35.22,737A124.62,124.62,0,0,0,125,775H700A125,125,0,0,0,825,650V344l-35.36-35.36Z"/></g></g></g></svg>