<svg xmlns="http://www.w3.org/2000/svg" viewBox="0 0 192.76 192.76">
<defs>
<style>.cls-1{fill:#f26722;}.cls-1,.cls-2{fill-rule:evenodd;}.cls-2{fill:#fff;}</style>
</defs>
<title>Asset 1</title>
<g id="Layer_2" data-name="Layer 2">
<g id="Layer_1-2" data-name="Layer 1">
<polygon class="cls-1" points="0 0 192.76 0 192.76 192.76 0 192.76 0 0 0 0"/>
<path class="cls-2" d="M75.11,170.06a15.13,15.13,0,0,1-8.48,2.55c-4.79,0-7.61-3.18-7.61-7.44,0-5.73,5.27-8.76,16.15-10v-1.43c0-1.86-1.41-2.94-4-2.94a7.67,7.67,0,0,0-6.25,2.94l-4.57-2.59q3.59-5,10.93-5c6.69,0,10.44,2.89,10.44,7.59,0,0,0,18.51,0,18.56h-6l-.6-2.25Zm-9.46-5.38a3.09,3.09,0,0,0,3,3.32,9.39,9.39,0,0,0,6.25-2.69v-6.06c-6.31.77-9.3,2.4-9.3,5.43Z"/><path class="cls-2" d="M87,147.3l5.59-.77.62,3c3.15-2.3,5.66-3.52,8.8-3.52,5.27,0,8,2.79,8,8.32v17.82h-6.74V155.54c0-3.13-.82-4.55-3.26-4.55-2,0-4,.93-6.31,2.84v18.36H87V147.3Z"/><path class="cls-2" d="M154.7,172.68c-7.56,0-12.07-4.85-12.07-13.27s4.57-13.36,12-13.36,11.79,4.7,11.79,13c0,.45-.06.88-.06,1.32H149.27c.06,4.85,2.07,7.3,6,7.3,2.56,0,4.24-1,5.81-3.28l4.94,2.74c-2.17,3.62-6.09,5.53-11.36,5.53ZM159.76,156c0-3.43-2-5.44-5.16-5.44-3.05,0-5,2-5.22,5.44Z"/><path class="cls-2" d="M25.5,173c-6.67,0-12.68-4.24-12.68-13.51s6-13.5,12.68-13.5,12.69,4.24,12.69,13.5S32.18,173,25.5,173Zm0-21.33c-5,0-6,4.54-6,7.82s.93,7.82,6,7.82,6-4.54,6-7.82-.93-7.82-6-7.82Z"/><path class="cls-2" d="M42.82,146.62h6.41v3a10,10,0,0,1,7.07-3.53,5.67,5.67,0,0,1,.87,0v6.32h-.32c-2.94,0-6.14.45-7.17,2.73v18H42.82v-26.6Z"/><path class="cls-2" d="M126.53,166.71c5.12,0,5.55-5.24,5.55-8.64,0-4-2-7.25-5.6-7.25-2.43,0-5.13,1.77-5.13,7.53,0,3.16.22,8.39,5.17,8.36Zm12-20.19v24.24c0,4.28-.32,11.31-12.54,11.39-5,0-9.71-2-10.65-6.37l6.66-1.07c.28,1.25,1,2.5,4.83,2.5,3.49,0,5.17-1.67,5.17-5.67v-3l-.09-.1c-1.07,1.91-2.71,3.72-6.62,3.72-6,0-10.68-4.14-10.68-12.79s4.85-13.35,10.31-13.36c5.11,0,7,2.32,7.45,3.55l-.08,0,.56-3.06Z"/><path class="cls-2" d="M170.13,136.49h-3.21v8.87h-1.69v-8.87H162v-1.37h8.11v1.37Zm13.36,8.87h-1.7v-8.55h0l-3.36,8.55h-1.07L174,136.81h-.05v8.55h-1.69V135.13h2.61l3.06,7.77,3-7.77h2.59v10.23Z"/>
</g>
</g>
</svg>